# xmcd
# 
# Track frame offsets:
#     150
#     32000
#     63487
#     94525
#     125287
#     144925
#     163712
# 
# Disc length: 2355
# 
# Revision: 1
# Processed by: cddbd v1.5.2PL0 Copyright (c) Steve Scherf et al.
# Submitted via: BonkEnc v1.0.8
# 
DISCID=53093107
DTITLE=坂田明 - DA-DA-DA
DYEAR=1985
DGENRE=Contemporary Jazz
TTITLE0=Rockin' In Rhythm
TTITLE1=Black and Tan Fantasy-Creole Love Call
TTITLE2=追憶
TTITLE3=Happy-Go-Lucky Local I&II
TTITLE4=Island Virgin
TTITLE5=Mood Indigo
TTITLE6=E?E!!E?
EXTD=YEAR: 1985
EXTT0=
EXTT1=
EXTT2=
EXTT3=
EXTT4=
EXTT5=
EXTT6=
PLAYORDER=
